# xmcd
#
# Track frame offsets:
#	150
#	12352
#	24981
#	37143
#	55911
#	72998
#	87915
#	101410
#	113521
#	133241
#	145141
#	157783
#	170143
#	187231
#	201001
#	212958
#	230380
#
# Disc length: 3238 seconds
#
# Revision: 1
# Processed by: cddbd v1.5.2PL0 Copyright (c) Steve Scherf et al.
# Submitted via: audiograbber 1.83.01
#
DISCID=f00ca411
DTITLE=Johnny Cash - Johnny Cash Legend 245
DYEAR=1900
DGENRE=
TTITLE0=Ring Of Fire
TTITLE1=Walk The Line
TTITLE2=In The Jailhouse Now
TTITLE3=One Piece At A Time
TTITLE4=Hurt
TTITLE5=Don't Take Your Guns To Town
TTITLE6=Ballad Of The Teenage Queen
TTITLE7=Jackson (Duet)
TTITLE8=Sunday Morning Coming Down
TTITLE9=Daddy Sang Bass
TTITLE10=Flesh And Blood
TTITLE11=Understand Your Man
TTITLE12=Ghost Riders In The Sky
TTITLE13=Man In Black
TTITLE14=So Doggone Lonesome
TTITLE15=A Boy Named Sue
TTITLE16=Folsom Prison Blues
EXTD=
EXTT0=
EXTT1=
EXTT2=
EXTT3=
EXTT4=
EXTT5=
EXTT6=
EXTT7=
EXTT8=
EXTT9=
EXTT10=
EXTT11=
EXTT12=
EXTT13=
EXTT14=
EXTT15=
EXTT16=
PLAYORDER=
